<svg width="12" height="12" viewBox="0 0 12 12" fill="none" xmlns="http://www.w3.org/2000/svg">
<g id="Delete">
<path id="Stroke 1" d="M10.2727 4.52319C10.2727 4.52319 9.95596 8.45194 9.77221 10.1069C9.68471 10.8973 9.19646 11.3604 8.39671 11.375C6.8748 11.4024 5.35113 11.4042 3.8298 11.3721C3.06038 11.3564 2.5803 10.8874 2.49455 10.1109C2.30963 8.44144 1.99463 4.52319 1.99463 4.52319" stroke="#939393" stroke-linecap="round" stroke-linejoin="round"/>
<path id="Stroke 3" d="M11.0797 2.63981H1.1875" stroke="#939393" stroke-linecap="round" stroke-linejoin="round"/>
<path id="Stroke 5" d="M9.17359 2.63986C8.71567 2.63986 8.32134 2.31611 8.23151 1.86753L8.08976 1.1582C8.00226 0.830948 7.70592 0.604614 7.36817 0.604614H4.89892C4.56117 0.604614 4.26484 0.830948 4.17734 1.1582L4.03559 1.86753C3.94576 2.31611 3.55142 2.63986 3.09351 2.63986" stroke="#939393" stroke-linecap="round" stroke-linejoin="round"/>
</g>
</svg>
